<?xml version="1.0" encoding="UTF-8" standalone="no"?>
<!-- Created with Inkscape (http://www.inkscape.org/) -->

<svg
   xmlns:dc="http://purl.org/dc/elements/1.1/"
   xmlns:cc="http://creativecommons.org/ns#"
   xmlns:rdf="http://www.w3.org/1999/02/22-rdf-syntax-ns#"
   xmlns:svg="http://www.w3.org/2000/svg"
   xmlns="http://www.w3.org/2000/svg"
   xmlns:sodipodi="http://sodipodi.sourceforge.net/DTD/sodipodi-0.dtd"
   xmlns:inkscape="http://www.inkscape.org/namespaces/inkscape"
   width="50mm"
   height="25mm"
   viewBox="0 0 50 25"
   version="1.1"
   id="svg857"
   inkscape:version="0.92.3 (2405546, 2018-03-11)"
   sodipodi:docname="50x25mm_stamp.svg"
   inkscape:export-filename="/home/paul/Projects/svg/fastfertig/initial.svg.png"
   inkscape:export-xdpi="299.9946"
   inkscape:export-ydpi="299.9946">
  <defs
     id="defs851" />
  <sodipodi:namedview
     id="base"
     pagecolor="#ffffff"
     bordercolor="#666666"
     borderopacity="1.0"
     inkscape:pageopacity="0.0"
     inkscape:pageshadow="2"
     inkscape:zoom="2.8"
     inkscape:cx="73.729502"
     inkscape:cy="24.354495"
     inkscape:document-units="mm"
     inkscape:current-layer="layer2"
     showgrid="false"
     showguides="true"
     inkscape:guide-bbox="true"
     inkscape:window-width="1920"
     inkscape:window-height="1138"
     inkscape:window-x="1912"
     inkscape:window-y="-8"
     inkscape:window-maximized="1">
    <sodipodi:guide
       position="3,28.064732"
       orientation="1,0"
       id="guide3395"
       inkscape:locked="false"
       inkscape:label=""
       inkscape:color="rgb(0,0,255)" />
    <sodipodi:guide
       position="47,27.686756"
       orientation="1,0"
       id="guide3397"
       inkscape:locked="false"
       inkscape:label=""
       inkscape:color="rgb(0,0,255)" />
    <sodipodi:guide
       position="26.741815,22"
       orientation="0,1"
       id="guide3399"
       inkscape:locked="false"
       inkscape:label=""
       inkscape:color="rgb(0,0,255)" />
    <sodipodi:guide
       position="31.372024,3"
       orientation="0,1"
       id="guide3401"
       inkscape:locked="false"
       inkscape:label=""
       inkscape:color="rgb(0,0,255)" />
  </sodipodi:namedview>
  <metadata
     id="metadata854">
    <rdf:RDF>
      <cc:Work
         rdf:about="">
        <dc:format>image/svg+xml</dc:format>
        <dc:type
           rdf:resource="http://purl.org/dc/dcmitype/StillImage" />
        <dc:title></dc:title>
      </cc:Work>
    </rdf:RDF>
  </metadata>
  <g
     inkscape:label="Background"
     inkscape:groupmode="layer"
     id="layer1"
     transform="translate(0,-272)"
     style="display:inline" />
  <g
     inkscape:groupmode="layer"
     id="layer3"
     inkscape:label="Stripes"
     transform="translate(0,-12)" />
  <g
     inkscape:groupmode="layer"
     id="layer2"
     inkscape:label="Text"
     style="display:inline"
     transform="translate(0,-12)">
    <path
       style="fill:#000b00;fill-opacity:1;stroke:none;stroke-width:1;stroke-miterlimit:4;stroke-dasharray:none;stroke-opacity:1"
       d="M -0.09449405,12.053572 H 49.905506 v 25 H -0.09449405 Z"
       id="rect1573" />
    <g
       id="text3413"
       style="font-style:normal;font-variant:normal;font-weight:bold;font-stretch:normal;font-size:5.24128199px;line-height:1.25;font-family:sans-serif;-inkscape-font-specification:'sans-serif Bold';letter-spacing:-0.38875109px;word-spacing:0px;display:inline;fill:#ffffff;fill-opacity:1;stroke:none;stroke-width:1;stroke-linecap:square;stroke-linejoin:round;stroke-miterlimit:4;stroke-dasharray:none;stroke-dashoffset:0;stroke-opacity:1;paint-order:markers stroke fill"
       transform="matrix(-0.99642046,0,0,1.0035924,51.315458,0)"
       aria-label="Fast" />
    <g
       id="text3447"
       style="font-style:normal;font-variant:normal;font-weight:normal;font-stretch:normal;font-size:4.53280067px;line-height:1.25;font-family:'Politics Head';-inkscape-font-specification:'Politics Head';letter-spacing:0px;word-spacing:0px;fill:#ffffff;fill-opacity:1;stroke:none;stroke-width:0.26458332"
       aria-label="TM"
       transform="matrix(-1,0,0,1,51.315458,0)" />
    <path
       id="path1599"
       style="font-style:normal;font-variant:normal;font-weight:bold;font-stretch:normal;font-size:14.11111069px;line-height:1.25;font-family:'Politics Head';-inkscape-font-specification:'Politics Head Bold';letter-spacing:-0.38875109px;word-spacing:0px;fill:#ffffff;fill-opacity:1;stroke:none;stroke-width:1;stroke-linecap:square;stroke-linejoin:round;stroke-miterlimit:4;stroke-dasharray:none;stroke-dashoffset:0;stroke-opacity:1;paint-order:markers stroke fill"
       d="m 11.343631,34.95314 h -0.98177 c -1.8674238,0 -2.8148662,-0.995752 -2.8148662,-2.496294 v -2.337252 c 0,-0.145213 0.089249,-0.235107 0.2334274,-0.235107 h 2.7393448 c 0.144176,0 0.233429,0.08989 0.233429,0.235107 v 1.071817 c 0,0.145214 -0.08925,0.235108 -0.233429,0.235108 H 9.634115 c -0.144176,0 -0.2334284,0.08989 -0.2334284,0.235108 v 0.58777 c 0,0.51862 0.3432768,0.940432 0.8925184,0.940432 h 1.050426 c 0.542376,0 0.892518,-0.394152 0.892518,-0.940432 v -3.754813 c 0,-0.511707 -0.343276,-0.940433 -0.892518,-0.940433 h -1.016098 c -0.5767043,0 -0.9268464,0.214363 -1.0710225,0.698409 -0.034327,0.103724 -0.1304454,0.159043 -0.2128314,0.159043 0,0 -0.068653,-0.0069 -0.102983,-0.02074 L 7.6911709,27.934473 c -0.082384,-0.02766 -0.1167148,-0.08298 -0.1167148,-0.145214 0,-0.04149 0,-0.06223 0.041192,-0.207449 0.3158134,-1.127135 1.3387775,-1.79097 2.7118828,-1.79097 h 1.016098 c 1.860558,0 2.814866,0.995752 2.814866,2.496295 v 4.169711 c 0,1.555862 -0.885653,2.496294 -2.814866,2.496294 z m 6.107426,-0.138299 h -1.455491 c -0.144176,0 -0.233427,-0.08989 -0.233427,-0.235108 v -8.484636 c 0,-0.145213 0.08925,-0.235107 0.233427,-0.235107 h 1.455491 c 0.144177,0 0.233429,0.08989 0.233429,0.235107 v 8.484636 c 0,0.145213 -0.08925,0.235108 -0.233429,0.235108 z m 5.256105,0 h -1.455491 c -0.144176,0 -0.233428,-0.08989 -0.233428,-0.235108 v -6.652175 c 0,-0.145214 -0.08925,-0.235109 -0.233428,-0.235109 h -1.537878 c -0.144176,0 -0.233428,-0.08989 -0.233428,-0.235107 v -1.293095 c 0,-0.145214 0.08925,-0.235108 0.233428,-0.235108 h 5.46496 c 0.144176,0 0.233428,0.08989 0.233428,0.235108 v 1.293095 c 0,0.145213 -0.08925,0.235107 -0.233428,0.235107 h -1.537879 c -0.144176,0 -0.233427,0.08989 -0.233427,0.235109 v 6.652175 c 0,0.145213 -0.08925,0.235108 -0.233429,0.235108 z m 5.949522,-5.158547 h 1.640862 c 0.144176,0 0.233427,-0.08989 0.233427,-0.235109 v -1.493627 c 0,-0.145214 -0.08925,-0.235109 -0.233427,-0.235109 h -1.640862 c -0.542376,0 -0.961173,0.366493 -0.961173,0.857454 v 0.242023 c 0,0.49096 0.432528,0.864368 0.961173,0.864368 z m 3.563209,5.158547 h -1.455491 c -0.144176,0 -0.233429,-0.08989 -0.233429,-0.235108 v -2.987255 c 0,-0.145214 -0.08925,-0.235109 -0.233427,-0.235109 H 29.10981 c -0.06179,0 -0.116714,0.02766 -0.144177,0.09681 l -1.338777,3.250023 c -0.03433,0.07606 -0.08238,0.110639 -0.137311,0.110639 h -1.661457 c -0.109849,0 -0.164773,-0.05532 -0.164773,-0.110639 0,-0.05532 0.02746,-0.145214 0.08925,-0.290427 l 1.345643,-3.298428 c 0.0206,-0.05532 0.03433,-0.09681 0.03433,-0.152129 0,-0.05532 -0.03433,-0.09681 -0.102983,-0.138299 -0.789536,-0.484047 -1.160274,-1.2032 -1.160274,-2.164377 0,-1.673416 1.050425,-2.731403 2.808,-2.731403 h 3.542612 c 0.144176,0 0.233428,0.08989 0.233428,0.235108 v 8.415486 c 0,0.145213 -0.08925,0.235108 -0.233428,0.235108 z m 2.015575,0 c -0.144176,0 -0.233428,-0.08989 -0.233428,-0.235108 v -1.293094 c 0,-0.145214 0.08925,-0.235109 0.233428,-0.235109 h 3.446494 c 0.144176,0 0.233428,-0.08989 0.233428,-0.235107 v -1.362244 c 0,-0.145214 -0.08925,-0.235108 -0.233428,-0.235108 h -2.828597 c -0.144176,0 -0.233428,-0.08989 -0.233428,-0.235109 v -1.293093 c 0,-0.145214 0.08925,-0.235109 0.233428,-0.235109 h 2.828597 c 0.144176,0 0.233428,-0.08989 0.233428,-0.235107 v -1.293095 c 0,-0.145214 -0.08925,-0.235109 -0.233428,-0.235109 h -3.446494 c -0.144176,0 -0.233428,-0.08989 -0.233428,-0.235107 v -1.293095 c 0,-0.145214 0.08925,-0.235108 0.233428,-0.235108 h 5.368842 c 0.144176,0 0.233428,0.08989 0.233428,0.235108 v 8.415486 c 0,0.145213 -0.08925,0.235108 -0.233428,0.235108 z m 12.533562,0 h -1.455492 c -0.144176,0 -0.233428,-0.08989 -0.233428,-0.235108 v -2.807467 c 0,-0.145214 -0.08925,-0.235108 -0.240293,-0.235108 h -2.821732 c -0.144176,0 -0.233428,-0.08989 -0.233428,-0.235108 v -1.293095 c 0,-0.145214 0.08925,-0.235107 0.233428,-0.235107 h 2.828598 c 0.144176,0 0.233427,-0.08989 0.233427,-0.235109 v -1.611181 c 0,-0.145214 -0.08925,-0.235109 -0.233427,-0.235109 h -3.446495 c -0.144176,0 -0.233428,-0.08989 -0.233428,-0.235107 v -1.293095 c 0,-0.145214 0.08925,-0.235108 0.233428,-0.235108 h 5.368842 c 0.144176,0 0.233428,0.08989 0.233428,0.235108 v 8.415486 c 0,0.145213 -0.08925,0.235108 -0.233428,0.235108 z M 5.5718334,26.032995 H 5.104831 c -0.046483,0 -0.07525,-0.02877 -0.07525,-0.07525 v -0.759157 c 0,-0.41831 0.061967,-0.885313 0.061967,-0.909659 h -0.01107 C 5.0739021,24.3 4.9764542,24.636416 4.9122678,24.795772 l -0.3386315,0.82998 c -0.01107,0.02877 -0.037615,0.04205 -0.077462,0.04205 H 4.1464768 c -0.030989,0 -0.057543,-0.01328 -0.068614,-0.03984 L 3.7259515,24.806832 C 3.6617721,24.647476 3.568808,24.31991 3.568808,24.308843 h -0.017706 c 0,0.02435 0.057553,0.489136 0.057553,0.894167 v 0.754729 c 0,0.04648 -0.028767,0.07525 -0.07525,0.07525 H 3.0752561 c -0.046483,0 -0.07525,-0.02877 -0.07525,-0.07525 v -2.715697 c 0,-0.04648 0.028767,-0.07525 0.07525,-0.07525 h 0.500201 c 0.033201,0 0.059765,0.01549 0.068614,0.03984 l 0.6064394,1.425353 c 0.028767,0.07525 0.053119,0.170423 0.053119,0.174849 h 0.022131 c 0,-0.0044 0.019918,-0.09296 0.053119,-0.174849 l 0.6219298,-1.425354 c 0.01107,-0.02435 0.035413,-0.03984 0.068613,-0.03984 h 0.5024151 c 0.046483,0 0.07525,0.02877 0.07525,0.07525 v 2.715697 c 0,0.04648 -0.028767,0.07525 -0.07525,0.07525 z m 1.8193172,0 H 6.9219353 c -0.046483,0 -0.07525,-0.02877 -0.07525,-0.07525 v -2.129177 c 0,-0.04648 -0.028767,-0.07525 -0.07525,-0.07525 h -0.495775 c -0.046483,0 -0.07525,-0.02877 -0.07525,-0.07525 v -0.413888 c 0,-0.04648 0.028767,-0.07525 0.07525,-0.07525 h 1.761772 c 0.046483,0 0.07525,0.02877 0.07525,0.07525 v 0.413884 c 0,0.04648 -0.028767,0.07525 -0.07525,0.07525 H 7.541658 c -0.046483,0 -0.07525,0.02877 -0.07525,0.07525 v 2.129177 c 0,0.04648 -0.028767,0.07525 -0.07525,0.07525 z M 23.997667,23.90874 h -1.455491 c -0.144176,0 -0.233428,-0.08989 -0.233428,-0.235107 v -6.652176 c 0,-0.145214 -0.08925,-0.235108 -0.233428,-0.235108 h -1.537878 c -0.144176,0 -0.233429,-0.08989 -0.233429,-0.235108 v -1.293094 c 0,-0.145214 0.08925,-0.235108 0.233429,-0.235108 h 5.46496 c 0.144176,0 0.233427,0.08989 0.233427,0.235108 v 1.293094 c 0,0.145214 -0.08925,0.235108 -0.233427,0.235108 h -1.537879 c -0.144176,0 -0.233427,0.08989 -0.233427,0.235108 v 6.652176 c 0,0.145214 -0.08925,0.235107 -0.233429,0.235107 z m 6.134892,0.138299 c -1.96354,0 -3.110083,-1.0649 -3.110083,-2.724487 0,-1.210115 0.837594,-2.136718 2.663825,-2.759062 1.125946,-0.387237 1.482953,-0.677665 1.482953,-1.120221 0,-0.456387 -0.377604,-0.822879 -1.04356,-0.822879 -0.597301,0 -1.04356,0.276598 -1.249526,0.726069 -0.04806,0.103725 -0.130445,0.159045 -0.212832,0.159045 -0.03433,0 -0.06865,-0.0069 -0.102983,-0.02074 l -1.249525,-0.456386 c -0.08238,-0.02766 -0.116715,-0.08298 -0.116715,-0.145214 0,-0.04149 0,-0.06223 0.04119,-0.207448 0.3982,-1.127135 1.469221,-1.79097 2.924714,-1.79097 1.853692,0 3.034562,1.2032 3.034562,2.454805 0,1.362244 -0.796401,2.281931 -2.677555,2.876616 -1.153408,0.366492 -1.469223,0.732984 -1.469223,1.17554 0,0.490961 0.370738,0.850538 1.077888,0.850538 0.768939,0 1.208332,-0.297342 1.42803,-0.774473 0.04806,-0.103725 0.130444,-0.159044 0.21283,-0.159044 0.03433,0 0.06865,0.0069 0.102984,0.02074 l 1.318181,0.504791 c 0.08238,0.02766 0.116714,0.08298 0.116714,0.145213 0,0.04149 0,0.06223 -0.04119,0.207449 -0.350142,1.16171 -1.544744,1.860119 -3.130681,1.860119 z m 8.235742,-3.312257 c 0.12358,0 0.157908,-0.05532 0.137311,-0.145214 l -0.796401,-2.987256 -0.03433,-0.283513 h -0.240293 l -0.03433,0.283513 -0.789536,2.987256 c -0.0206,0.08989 0.0206,0.145214 0.144176,0.145214 z m -2.135178,1.76331 c -0.102983,0 -0.137311,0.01383 -0.157907,0.08298 l -0.32268,1.223944 c -0.0206,0.06915 -0.06865,0.103724 -0.144176,0.103724 h -1.702651 c -0.102982,0 -0.151042,-0.03457 -0.151042,-0.103724 0,-0.02074 0,-0.03457 0.01373,-0.07606 l 2.519648,-8.629849 c 0.02746,-0.09681 0.116714,-0.145214 0.219697,-0.145214 h 2.080255 c 0.102982,0 0.192235,0.0484 0.219697,0.145214 0,0 2.505917,8.553784 2.512782,8.57453 0.01373,0.03457 0.02746,0.09681 0.02746,0.131383 0,0.06915 -0.05492,0.103724 -0.157906,0.103724 h -1.695785 c -0.06865,0 -0.116715,-0.03457 -0.137311,-0.103724 l -0.32268,-1.223944 c -0.0206,-0.06915 -0.04806,-0.08298 -0.157907,-0.08298 z m 10.535694,1.410648 h -1.455492 c -0.144176,0 -0.233428,-0.08989 -0.233428,-0.235107 v -2.807468 c 0,-0.145214 -0.08925,-0.235107 -0.240293,-0.235107 h -2.821732 c -0.144176,0 -0.233428,-0.08989 -0.233428,-0.235109 v -1.293094 c 0,-0.145213 0.08925,-0.235108 0.233428,-0.235108 h 2.828597 c 0.144176,0 0.233428,-0.08989 0.233428,-0.235108 v -1.611182 c 0,-0.145214 -0.08925,-0.235108 -0.233428,-0.235108 h -3.446494 c -0.144177,0 -0.233428,-0.08989 -0.233428,-0.235108 v -1.293094 c 0,-0.145214 0.08925,-0.235108 0.233428,-0.235108 h 5.368842 c 0.144176,0 0.233428,0.08989 0.233428,0.235108 v 8.415486 c 0,0.145214 -0.08925,0.235107 -0.233428,0.235107 z"
       inkscape:connector-curvature="0" />
    <rect
       style="fill:none;fill-opacity:1;stroke:#ff0000;stroke-width:0.1;stroke-miterlimit:4;stroke-dasharray:none;stroke-opacity:1"
       id="rect1642"
       width="50"
       height="25"
       x="-0.094494052"
       y="12.053572" />
  </g>
</svg>
