<?xml version="1.0" encoding="UTF-8" standalone="no"?>
<!-- Created with Inkscape (http://www.inkscape.org/) -->

<svg
   xmlns:dc="http://purl.org/dc/elements/1.1/"
   xmlns:cc="http://creativecommons.org/ns#"
   xmlns:rdf="http://www.w3.org/1999/02/22-rdf-syntax-ns#"
   xmlns:svg="http://www.w3.org/2000/svg"
   xmlns="http://www.w3.org/2000/svg"
   xmlns:sodipodi="http://sodipodi.sourceforge.net/DTD/sodipodi-0.dtd"
   xmlns:inkscape="http://www.inkscape.org/namespaces/inkscape"
   width="50mm"
   height="25mm"
   viewBox="0 0 50 25"
   version="1.1"
   id="svg857"
   inkscape:version="0.92.4 (5da689c313, 2019-01-14)"
   sodipodi:docname="50x25mm_stamp.svg"
   inkscape:export-filename="/home/paul/Projects/svg/fastfertig/initial.svg.png"
   inkscape:export-xdpi="299.9946"
   inkscape:export-ydpi="299.9946">
  <defs
     id="defs851" />
  <sodipodi:namedview
     id="base"
     pagecolor="#ffffff"
     bordercolor="#666666"
     borderopacity="1.0"
     inkscape:pageopacity="0.0"
     inkscape:pageshadow="2"
     inkscape:zoom="2.8"
     inkscape:cx="-1.6355389"
     inkscape:cy="5.5414005"
     inkscape:document-units="mm"
     inkscape:current-layer="layer2"
     showgrid="false"
     showguides="true"
     inkscape:guide-bbox="true"
     inkscape:window-width="1920"
     inkscape:window-height="1017"
     inkscape:window-x="-8"
     inkscape:window-y="-8"
     inkscape:window-maximized="1">
    <sodipodi:guide
       position="3,28.064732"
       orientation="1,0"
       id="guide3395"
       inkscape:locked="false"
       inkscape:label=""
       inkscape:color="rgb(0,0,255)" />
    <sodipodi:guide
       position="47,27.686756"
       orientation="1,0"
       id="guide3397"
       inkscape:locked="false"
       inkscape:label=""
       inkscape:color="rgb(0,0,255)" />
    <sodipodi:guide
       position="26.741815,22"
       orientation="0,1"
       id="guide3399"
       inkscape:locked="false"
       inkscape:label=""
       inkscape:color="rgb(0,0,255)" />
    <sodipodi:guide
       position="31.372024,3"
       orientation="0,1"
       id="guide3401"
       inkscape:locked="false"
       inkscape:label=""
       inkscape:color="rgb(0,0,255)" />
  </sodipodi:namedview>
  <metadata
     id="metadata854">
    <rdf:RDF>
      <cc:Work
         rdf:about="">
        <dc:format>image/svg+xml</dc:format>
        <dc:type
           rdf:resource="http://purl.org/dc/dcmitype/StillImage" />
        <dc:title />
      </cc:Work>
    </rdf:RDF>
  </metadata>
  <g
     inkscape:label="Background"
     inkscape:groupmode="layer"
     id="layer1"
     transform="translate(0,-272)"
     style="display:inline" />
  <g
     inkscape:groupmode="layer"
     id="layer3"
     inkscape:label="Stripes"
     transform="translate(0,-12)" />
  <g
     inkscape:groupmode="layer"
     id="layer2"
     inkscape:label="Text"
     style="display:inline"
     transform="translate(0,-12)">
    <path
       style="fill:#000b00;fill-opacity:1;stroke:none;stroke-width:3.77952766;stroke-miterlimit:4;stroke-dasharray:none;stroke-opacity:1"
       d="M -0.35742188 0.203125 L -0.35742188 94.691406 L 188.61914 94.691406 L 188.61914 92.179688 C 187.9969 93.534136 186.62028 94.488281 185.02734 94.488281 L 3.9492188 94.488281 C 1.7806976 94.488281 -5.9211895e-16 92.726615 0 90.582031 L 0 3.90625 C -2.3908372e-16 2.1743853 1.168869 0.70924754 2.7578125 0.203125 L -0.35742188 0.203125 z M 186.21875 0.203125 C 187.28544 0.54289574 188.15992 1.3089885 188.61914 2.3085938 L 188.61914 0.203125 L 186.21875 0.203125 z M 3.9492188 2.0859375 C 2.9139964 2.0859375 2.109375 2.8824554 2.109375 3.90625 L 2.109375 90.582031 C 2.109375 91.605822 2.9139964 92.402344 3.9492188 92.402344 L 185.02734 92.402344 C 186.06257 92.402344 186.86719 91.605822 186.86719 90.582031 L 186.86719 3.90625 C 186.86719 2.8824554 186.06257 2.0859375 185.02734 2.0859375 L 3.9492188 2.0859375 z M 113.99023 10.902344 C 120.99631 10.902344 125.45898 15.451165 125.45898 20.181641 C 125.45898 25.330279 122.44972 28.805106 115.33984 31.052734 C 110.98051 32.437901 109.78711 33.823441 109.78711 35.496094 C 109.78711 37.351694 111.18864 38.710938 113.86133 38.710938 C 116.76755 38.710938 118.42746 37.586533 119.25781 35.783203 C 119.43946 35.391172 119.75112 35.181641 120.0625 35.181641 C 120.19225 35.181641 120.32141 35.20941 120.45117 35.261719 L 125.43359 37.167969 C 125.74495 37.27251 125.875 37.481586 125.875 37.716797 C 125.875 37.873609 125.87443 37.953094 125.71875 38.501953 C 124.39538 42.892668 119.88081 45.53125 113.88672 45.53125 C 106.46547 45.53125 102.13281 41.50683 102.13281 35.234375 C 102.13281 30.660712 105.29693 27.158807 112.19922 24.806641 C 116.45476 23.343068 117.80469 22.244918 117.80469 20.572266 C 117.80469 18.847338 116.37833 17.462891 113.86133 17.462891 C 111.60381 17.462891 109.91713 18.508243 109.13867 20.207031 C 108.95703 20.599063 108.64537 20.808594 108.33398 20.808594 C 108.20423 20.808594 108.07508 20.782777 107.94531 20.730469 L 103.22266 19.005859 C 102.9113 18.901318 102.78125 18.690293 102.78125 18.455078 C 102.78125 18.298266 102.78182 18.22073 102.9375 17.671875 C 104.44251 13.411837 108.48916 10.902344 113.99023 10.902344 z M 137.98242 11.164062 L 145.84375 11.164062 C 146.23297 11.164062 146.57003 11.346979 146.67383 11.712891 C 146.67383 11.712891 156.14593 44.042684 156.17188 44.121094 C 156.22377 44.251752 156.27539 44.486518 156.27539 44.617188 C 156.27539 44.878542 156.06893 45.009766 155.67969 45.009766 L 149.26953 45.009766 C 149.01007 45.009766 148.82784 44.878557 148.75 44.617188 L 147.53125 39.992188 C 147.45339 39.730833 147.34876 39.677734 146.93359 39.677734 L 136.94336 39.677734 C 136.55413 39.677734 136.4255 39.730833 136.34766 39.992188 L 135.12695 44.617188 C 135.04909 44.878542 134.86748 45.009766 134.58203 45.009766 L 128.14844 45.009766 C 127.75921 45.009766 127.57617 44.878557 127.57617 44.617188 C 127.57617 44.5388 127.57701 44.486891 127.62891 44.330078 L 137.15234 11.712891 C 137.25613 11.346995 137.59319 11.164062 137.98242 11.164062 z M 77.621094 11.425781 L 98.277344 11.425781 C 98.822261 11.425781 99.158203 11.765598 99.158203 12.314453 L 99.158203 17.201172 C 99.158203 17.750012 98.822265 18.089844 98.277344 18.089844 L 92.464844 18.089844 C 91.919927 18.089844 91.582031 18.42966 91.582031 18.978516 L 91.582031 44.121094 C 91.582031 44.669934 91.244147 45.009766 90.699219 45.009766 L 85.199219 45.009766 C 84.654302 45.009766 84.316406 44.669945 84.316406 44.121094 L 84.316406 18.978516 C 84.316406 18.429675 83.978518 18.089844 83.433594 18.089844 L 77.621094 18.089844 C 77.076177 18.089844 76.740234 17.750027 76.740234 17.201172 L 76.740234 12.314453 C 76.740234 11.765613 77.076165 11.425781 77.621094 11.425781 z M 156.47266 11.425781 L 176.76367 11.425781 C 177.30859 11.425781 177.64648 11.765598 177.64648 12.314453 L 177.64648 44.121094 C 177.64648 44.669934 177.3086 45.009766 176.76367 45.009766 L 171.26367 45.009766 C 170.71875 45.009766 170.38086 44.669945 170.38086 44.121094 L 170.38086 33.509766 C 170.38086 32.960925 170.04353 32.621094 169.47266 32.621094 L 158.80859 32.621094 C 158.26368 32.621094 157.92578 32.281281 157.92578 31.732422 L 157.92578 26.845703 C 157.92578 26.296867 158.26367 25.957031 158.80859 25.957031 L 169.49805 25.957031 C 170.04296 25.957031 170.38086 25.617215 170.38086 25.068359 L 170.38086 18.978516 C 170.38086 18.429675 170.04297 18.089844 169.49805 18.089844 L 156.47266 18.089844 C 155.92774 18.089844 155.58984 17.750027 155.58984 17.201172 L 155.58984 12.314453 C 155.58984 11.765613 155.92773 11.425781 156.47266 11.425781 z M 141.48438 20.103516 L 141.35547 21.173828 L 138.37109 32.464844 C 138.29324 32.804585 138.44896 33.013672 138.91602 33.013672 L 145.01367 33.013672 C 145.48075 33.013672 145.61105 32.804601 145.5332 32.464844 L 142.52344 21.173828 L 142.39258 20.103516 L 141.48438 20.103516 z M 11.623047 42.205078 L 13.513672 42.205078 C 13.639156 42.205078 13.739992 42.263437 13.773438 42.355469 L 16.064453 47.742188 C 16.173179 48.026597 16.265625 48.387569 16.265625 48.404297 L 16.349609 48.404297 C 16.349609 48.387667 16.425297 48.051689 16.550781 47.742188 L 18.900391 42.355469 C 18.94223 42.263437 19.034676 42.205078 19.160156 42.205078 L 21.058594 42.205078 C 21.234278 42.205078 21.34375 42.314562 21.34375 42.490234 L 21.34375 52.753906 C 21.34375 52.929579 21.234278 53.037109 21.058594 53.037109 L 21.058594 53.039062 L 19.292969 53.039062 C 19.117285 53.039062 19.009766 52.929579 19.009766 52.753906 L 19.009766 49.884766 C 19.009766 48.303751 19.244141 46.539282 19.244141 46.447266 L 19.201172 46.447266 C 19.176318 46.489109 18.809001 47.759038 18.566406 48.361328 L 17.287109 51.498047 C 17.24527 51.606784 17.144743 51.658203 16.994141 51.658203 L 15.671875 51.658203 C 15.554751 51.658203 15.453953 51.608197 15.412109 51.507812 L 14.082031 48.404297 C 13.839463 47.802006 13.488281 46.563312 13.488281 46.521484 L 13.421875 46.521484 C 13.421875 46.613516 13.638672 48.369565 13.638672 49.900391 L 13.638672 52.753906 C 13.638672 52.929579 13.531153 53.037109 13.355469 53.037109 L 11.623047 53.037109 C 11.447363 53.037109 11.337891 52.929579 11.337891 52.753906 L 11.337891 42.490234 C 11.337891 42.314562 11.447363 42.205078 11.623047 42.205078 z M 23.71875 42.289062 L 30.376953 42.289062 C 30.552637 42.289062 30.662109 42.398546 30.662109 42.574219 L 30.662109 44.136719 C 30.662109 44.312391 30.552637 44.421875 30.376953 44.421875 L 28.503906 44.421875 C 28.328222 44.421875 28.21875 44.531359 28.21875 44.707031 L 28.21875 52.753906 C 28.21875 52.929579 28.111231 53.037109 27.935547 53.037109 L 27.935547 53.039062 L 26.162109 53.039062 C 25.986426 53.039062 25.876953 52.929579 25.876953 52.753906 L 25.876953 44.707031 C 25.876953 44.531359 25.769434 44.421875 25.59375 44.421875 L 23.71875 44.421875 C 23.543066 44.421875 23.435547 44.312391 23.435547 44.136719 L 23.435547 42.574219 C 23.435547 42.398546 23.543066 42.289062 23.71875 42.289062 z M 39.033203 52.123047 L 42.873047 52.123047 C 49.905077 52.123047 53.511719 55.88725 53.511719 61.558594 L 53.511719 77.316406 C 53.511719 83.19683 50.164561 86.751953 42.873047 86.751953 L 39.162109 86.751953 C 32.10413 86.751953 28.523438 82.987746 28.523438 77.316406 L 28.523438 68.484375 C 28.523438 67.935538 28.861324 67.595703 29.40625 67.595703 L 39.759766 67.595703 C 40.304683 67.595703 40.642578 67.935523 40.642578 68.484375 L 40.642578 72.535156 C 40.642578 73.083997 40.304694 73.423828 39.759766 73.423828 L 36.412109 73.423828 C 35.867192 73.423828 35.529297 73.763645 35.529297 74.3125 L 35.529297 76.533203 C 35.529297 78.493342 36.828423 80.087891 38.904297 80.087891 L 42.873047 80.087891 C 44.922972 80.087891 46.246094 78.597883 46.246094 76.533203 L 46.246094 62.341797 C 46.246094 60.407786 44.948922 58.787109 42.873047 58.787109 L 39.033203 58.787109 C 36.853533 58.787109 35.529293 59.598269 34.984375 61.427734 C 34.854635 61.819762 34.493021 62.027344 34.181641 62.027344 C 34.181641 62.027344 33.920767 62.001527 33.791016 61.949219 L 29.068359 60.224609 C 28.756987 60.120068 28.626953 59.910996 28.626953 59.675781 C 28.626953 59.518969 28.627517 59.441437 28.783203 58.892578 C 29.976829 54.63254 33.843514 52.123047 39.033203 52.123047 z M 60.455078 52.384766 L 65.957031 52.384766 C 66.501952 52.384766 66.839844 52.724586 66.839844 53.273438 L 66.839844 85.339844 C 66.839844 85.88868 66.50196 86.228516 65.957031 86.228516 L 60.455078 86.228516 C 59.910161 86.228516 59.574219 85.888699 59.574219 85.339844 L 59.574219 53.273438 C 59.574219 52.724601 59.910157 52.384766 60.455078 52.384766 z M 72.744141 52.646484 L 93.398438 52.646484 C 93.943355 52.646484 94.28125 52.984348 94.28125 53.533203 L 94.28125 58.421875 C 94.28125 58.970712 93.943362 59.310547 93.398438 59.310547 L 87.585938 59.310547 C 87.04102 59.310547 86.705078 59.65036 86.705078 60.199219 L 86.705078 85.339844 C 86.705078 85.88868 86.367194 86.228516 85.822266 86.228516 L 80.320312 86.228516 C 79.775395 86.228516 79.439453 85.888699 79.439453 85.339844 L 79.439453 60.199219 C 79.439453 59.650378 79.101565 59.310547 78.556641 59.310547 L 72.744141 59.310547 C 72.199223 59.310547 71.861328 58.970727 71.861328 58.421875 L 71.861328 53.533203 C 71.861328 52.984363 72.199216 52.646484 72.744141 52.646484 z M 108.38672 52.646484 L 121.77539 52.646484 C 122.32031 52.646484 122.6582 52.984348 122.6582 53.533203 L 122.6582 85.339844 C 122.6582 85.88868 122.32032 86.228516 121.77539 86.228516 L 116.27539 86.228516 C 115.73047 86.228516 115.39258 85.888699 115.39258 85.339844 L 115.39258 74.050781 C 115.39258 73.501941 115.05469 73.162109 114.50977 73.162109 L 110.02148 73.162109 C 109.78795 73.162109 109.58036 73.265989 109.47656 73.527344 L 104.41602 85.810547 C 104.28626 86.098018 104.10605 86.228516 103.89844 86.228516 L 97.617188 86.228516 C 97.20201 86.228516 96.996094 86.019627 96.996094 85.810547 C 96.996094 85.601463 97.098494 85.261727 97.332031 84.712891 L 102.41797 72.246094 C 102.49583 72.03701 102.54883 71.880955 102.54883 71.671875 C 102.54883 71.462792 102.41768 71.305246 102.1582 71.148438 C 99.17413 69.318969 97.773437 66.601545 97.773438 62.96875 C 97.773438 56.644028 101.74392 52.646484 108.38672 52.646484 z M 129.39453 52.646484 L 149.68555 52.646484 C 150.23046 52.646484 150.56836 52.984348 150.56836 53.533203 L 150.56836 85.339844 C 150.56836 85.88868 150.23047 86.228516 149.68555 86.228516 L 129.39453 86.228516 C 128.84961 86.228516 128.51172 85.888699 128.51172 85.339844 L 128.51172 80.453125 C 128.51172 79.904285 128.84961 79.564453 129.39453 79.564453 L 142.41992 79.564453 C 142.96484 79.564453 143.30273 79.224633 143.30273 78.675781 L 143.30273 73.527344 C 143.30273 72.978503 142.96485 72.638672 142.41992 72.638672 L 131.72852 72.638672 C 131.1836 72.638672 130.84766 72.298859 130.84766 71.75 L 130.84766 66.863281 C 130.84766 66.314441 131.18359 65.974609 131.72852 65.974609 L 142.41992 65.974609 C 142.96484 65.974609 143.30273 65.634789 143.30273 65.085938 L 143.30273 60.199219 C 143.30273 59.650378 142.96485 59.310547 142.41992 59.310547 L 129.39453 59.310547 C 128.84961 59.310547 128.51172 58.970727 128.51172 58.421875 L 128.51172 53.533203 C 128.51172 52.984363 128.84961 52.646484 129.39453 52.646484 z M 156.47266 52.646484 L 176.76562 52.646484 C 177.31054 52.646484 177.64648 52.984348 177.64648 53.533203 L 177.64648 85.339844 C 177.64648 85.88868 177.31055 86.228516 176.76562 86.228516 L 171.26367 86.228516 C 170.71875 86.228516 170.38086 85.888699 170.38086 85.339844 L 170.38086 74.730469 C 170.38086 74.181628 170.04353 73.841797 169.47266 73.841797 L 158.80859 73.841797 C 158.26368 73.841797 157.92578 73.50198 157.92578 72.953125 L 157.92578 68.064453 C 157.92578 67.515613 158.26367 67.175781 158.80859 67.175781 L 169.5 67.175781 C 170.04492 67.175781 170.38086 66.837922 170.38086 66.289062 L 170.38086 60.199219 C 170.38086 59.650378 170.04492 59.310547 169.5 59.310547 L 156.47266 59.310547 C 155.92774 59.310547 155.5918 58.970727 155.5918 58.421875 L 155.5918 53.533203 C 155.5918 52.984363 155.92773 52.646484 156.47266 52.646484 z M 108.30859 59.310547 C 106.25867 59.310547 104.67578 60.695181 104.67578 62.550781 L 104.67578 63.464844 C 104.67578 65.320441 106.31057 66.732422 108.30859 66.732422 L 114.50977 66.732422 C 115.05468 66.732422 115.39258 66.392609 115.39258 65.84375 L 115.39258 60.199219 C 115.39258 59.650378 115.05469 59.310547 114.50977 59.310547 L 108.30859 59.310547 z "
       id="rect1573"
       transform="matrix(0.26458333,0,0,0.26458333,0,12)" />
    <g
       id="text3413"
       style="font-style:normal;font-variant:normal;font-weight:bold;font-stretch:normal;font-size:5.24128199px;line-height:1.25;font-family:sans-serif;-inkscape-font-specification:'sans-serif Bold';letter-spacing:-0.38875109px;word-spacing:0px;display:inline;fill:#ffffff;fill-opacity:1;stroke:none;stroke-width:1;stroke-linecap:square;stroke-linejoin:round;stroke-miterlimit:4;stroke-dasharray:none;stroke-dashoffset:0;stroke-opacity:1;paint-order:markers stroke fill"
       transform="matrix(-0.99642046,0,0,1.0035924,51.315458,0)"
       aria-label="Fast" />
    <g
       id="text3447"
       style="font-style:normal;font-variant:normal;font-weight:normal;font-stretch:normal;font-size:4.53280067px;line-height:1.25;font-family:'Politics Head';-inkscape-font-specification:'Politics Head';letter-spacing:0px;word-spacing:0px;fill:#ffffff;fill-opacity:1;stroke:none;stroke-width:0.26458332"
       aria-label="TM"
       transform="matrix(-1,0,0,1,51.315458,0)" />
    <rect
       style="fill:none;fill-opacity:1;stroke:#ff0000;stroke-width:0.04999999;stroke-miterlimit:4;stroke-dasharray:none;stroke-opacity:1"
       id="rect1642"
       width="49.950001"
       height="24.950001"
       x="0.025"
       y="12.025021" />
  </g>
</svg>
